<?xml version="1.0" encoding="UTF-8" standalone="no"?>
<!DOCTYPE svg PUBLIC "-//W3C//DTD SVG 1.1//EN"
 "http://www.w3.org/Graphics/SVG/1.1/DTD/svg11.dtd">
<!-- Generated by graphviz version 6.0.2 (20221126.1951)
 -->
<!-- Title: snakemake_dag Pages: 1 -->
<svg width="1318pt" height="764pt"
 viewBox="0.00 0.00 1317.50 764.00" xmlns="http://www.w3.org/2000/svg" xmlns:xlink="http://www.w3.org/1999/xlink">
<g id="graph0" class="graph" transform="scale(1 1) rotate(0) translate(4 760)">
<title>snakemake_dag</title>
<polygon fill="white" stroke="none" points="-4,4 -4,-760 1313.5,-760 1313.5,4 -4,4"/>
<!-- 0 -->
<g id="node1" class="node">
<title>0</title>
<path fill="none" stroke="#d85656" stroke-width="2" d="M352,-36C352,-36 252,-36 252,-36 246,-36 240,-30 240,-24 240,-24 240,-12 240,-12 240,-6 246,0 252,0 252,0 352,0 352,0 358,0 364,-6 364,-12 364,-12 364,-24 364,-24 364,-30 358,-36 352,-36"/>
<text text-anchor="middle" x="302" y="-15.5" font-family="sans" font-size="10.00">plot_all_paper_figures</text>
</g>
<!-- 1 -->
<g id="node2" class="node">
<title>1</title>
<path fill="none" stroke="#d88556" stroke-width="2" d="M495,-108C495,-108 381,-108 381,-108 375,-108 369,-102 369,-96 369,-96 369,-84 369,-84 369,-78 375,-72 381,-72 381,-72 495,-72 495,-72 501,-72 507,-78 507,-84 507,-84 507,-96 507,-96 507,-102 501,-108 495,-108"/>
<text text-anchor="middle" x="438" y="-87.5" font-family="sans" font-size="10.00">plot_LCoEs_by_flexibility</text>
</g>
<!-- 1&#45;&gt;0 -->
<g id="edge2" class="edge">
<title>1&#45;&gt;0</title>
<path fill="none" stroke="grey" stroke-width="2" d="M404.73,-71.88C386.54,-62.51 363.81,-50.81 344.36,-40.8"/>
<polygon fill="grey" stroke="grey" stroke-width="2" points="345.89,-37.65 335.4,-36.19 342.69,-43.88 345.89,-37.65"/>
</g>
<!-- 2 -->
<g id="node3" class="node">
<title>2</title>
<path fill="none" stroke="#ced856" stroke-width="2" d="M433.5,-180C433.5,-180 344.5,-180 344.5,-180 338.5,-180 332.5,-174 332.5,-168 332.5,-168 332.5,-156 332.5,-156 332.5,-150 338.5,-144 344.5,-144 344.5,-144 433.5,-144 433.5,-144 439.5,-144 445.5,-150 445.5,-156 445.5,-156 445.5,-168 445.5,-168 445.5,-174 439.5,-180 433.5,-180"/>
<text text-anchor="middle" x="389" y="-159.5" font-family="sans" font-size="10.00">all_scenario_results</text>
</g>
<!-- 2&#45;&gt;1 -->
<g id="edge6" class="edge">
<title>2&#45;&gt;1</title>
<path fill="none" stroke="grey" stroke-width="2" d="M401.11,-143.7C406.87,-135.47 413.86,-125.48 420.21,-116.42"/>
<polygon fill="grey" stroke="grey" stroke-width="2" points="423.16,-118.3 426.03,-108.1 417.42,-114.29 423.16,-118.3"/>
</g>
<!-- 22 -->
<g id="node23" class="node">
<title>22</title>
<path fill="none" stroke="#afd856" stroke-width="2" d="M719,-108C719,-108 537,-108 537,-108 531,-108 525,-102 525,-96 525,-96 525,-84 525,-84 525,-78 531,-72 537,-72 537,-72 719,-72 719,-72 725,-72 731,-78 731,-84 731,-84 731,-96 731,-96 731,-102 725,-108 719,-108"/>
<text text-anchor="middle" x="628" y="-87.5" font-family="sans" font-size="10.00">plot_LCoEs_per_exporter_by_flexibility</text>
</g>
<!-- 2&#45;&gt;22 -->
<g id="edge32" class="edge">
<title>2&#45;&gt;22</title>
<path fill="none" stroke="grey" stroke-width="2" d="M445.64,-144.41C479.83,-134.4 523.63,-121.57 559.73,-111"/>
<polygon fill="grey" stroke="grey" stroke-width="2" points="561.08,-114.25 569.69,-108.08 559.11,-107.53 561.08,-114.25"/>
</g>
<!-- 23 -->
<g id="node24" class="node">
<title>23</title>
<path fill="none" stroke="#78d856" stroke-width="2" d="M223.5,-108C223.5,-108 92.5,-108 92.5,-108 86.5,-108 80.5,-102 80.5,-96 80.5,-96 80.5,-84 80.5,-84 80.5,-78 86.5,-72 92.5,-72 92.5,-72 223.5,-72 223.5,-72 229.5,-72 235.5,-78 235.5,-84 235.5,-84 235.5,-96 235.5,-96 235.5,-102 229.5,-108 223.5,-108"/>
<text text-anchor="middle" x="158" y="-87.5" font-family="sans" font-size="10.00">plot_storage_link_utilisation</text>
</g>
<!-- 2&#45;&gt;23 -->
<g id="edge33" class="edge">
<title>2&#45;&gt;23</title>
<path fill="none" stroke="grey" stroke-width="2" d="M332.79,-143.97C300.09,-134.06 258.7,-121.51 224.4,-111.12"/>
<polygon fill="grey" stroke="grey" stroke-width="2" points="225.05,-107.66 214.47,-108.11 223.02,-114.36 225.05,-107.66"/>
</g>
<!-- 24 -->
<g id="node25" class="node">
<title>24</title>
<path fill="none" stroke="#56d8d0" stroke-width="2" d="M338.5,-108C338.5,-108 265.5,-108 265.5,-108 259.5,-108 253.5,-102 253.5,-96 253.5,-96 253.5,-84 253.5,-84 253.5,-78 259.5,-72 265.5,-72 265.5,-72 338.5,-72 338.5,-72 344.5,-72 350.5,-78 350.5,-84 350.5,-84 350.5,-96 350.5,-96 350.5,-102 344.5,-108 338.5,-108"/>
<text text-anchor="middle" x="302" y="-87.5" font-family="sans" font-size="10.00">plot_RES_shares</text>
</g>
<!-- 2&#45;&gt;24 -->
<g id="edge34" class="edge">
<title>2&#45;&gt;24</title>
<path fill="none" stroke="grey" stroke-width="2" d="M367.49,-143.7C356.54,-134.88 343.05,-124.03 331.18,-114.47"/>
<polygon fill="grey" stroke="grey" stroke-width="2" points="333.24,-111.65 323.26,-108.1 328.86,-117.1 333.24,-111.65"/>
</g>
<!-- 3 -->
<g id="node4" class="node">
<title>3</title>
<path fill="none" stroke="#56d8a2" stroke-width="2" d="M419,-252C419,-252 359,-252 359,-252 353,-252 347,-246 347,-240 347,-240 347,-228 347,-228 347,-222 353,-216 359,-216 359,-216 419,-216 419,-216 425,-216 431,-222 431,-228 431,-228 431,-240 431,-240 431,-246 425,-252 419,-252"/>
<text text-anchor="middle" x="389" y="-231.5" font-family="sans" font-size="10.00">extract_result</text>
</g>
<!-- 3&#45;&gt;2 -->
<g id="edge7" class="edge">
<title>3&#45;&gt;2</title>
<path fill="none" stroke="grey" stroke-width="2" d="M389,-215.7C389,-207.98 389,-198.71 389,-190.11"/>
<polygon fill="grey" stroke="grey" stroke-width="2" points="392.5,-190.1 389,-180.1 385.5,-190.1 392.5,-190.1"/>
</g>
<!-- 4 -->
<g id="node5" class="node">
<title>4</title>
<path fill="none" stroke="#56d882" stroke-width="2" d="M421,-324C421,-324 357,-324 357,-324 351,-324 345,-318 345,-312 345,-312 345,-300 345,-300 345,-294 351,-288 357,-288 357,-288 421,-288 421,-288 427,-288 433,-294 433,-300 433,-300 433,-312 433,-312 433,-318 427,-324 421,-324"/>
<text text-anchor="middle" x="389" y="-303.5" font-family="sans" font-size="10.00">solve_network</text>
</g>
<!-- 4&#45;&gt;3 -->
<g id="edge8" class="edge">
<title>4&#45;&gt;3</title>
<path fill="none" stroke="grey" stroke-width="2" d="M389,-287.7C389,-279.98 389,-270.71 389,-262.11"/>
<polygon fill="grey" stroke="grey" stroke-width="2" points="392.5,-262.1 389,-252.1 385.5,-262.1 392.5,-262.1"/>
</g>
<!-- 5 -->
<g id="node6" class="node">
<title>5</title>
<path fill="none" stroke="#56b1d8" stroke-width="2" d="M371.5,-396C371.5,-396 310.5,-396 310.5,-396 304.5,-396 298.5,-390 298.5,-384 298.5,-384 298.5,-372 298.5,-372 298.5,-366 304.5,-360 310.5,-360 310.5,-360 371.5,-360 371.5,-360 377.5,-360 383.5,-366 383.5,-372 383.5,-372 383.5,-384 383.5,-384 383.5,-390 377.5,-396 371.5,-396"/>
<text text-anchor="middle" x="341" y="-375.5" font-family="sans" font-size="10.00">attach_supply</text>
</g>
<!-- 5&#45;&gt;4 -->
<g id="edge9" class="edge">
<title>5&#45;&gt;4</title>
<path fill="none" stroke="grey" stroke-width="2" d="M352.87,-359.7C358.5,-351.47 365.35,-341.48 371.57,-332.42"/>
<polygon fill="grey" stroke="grey" stroke-width="2" points="374.5,-334.33 377.27,-324.1 368.73,-330.37 374.5,-334.33"/>
</g>
<!-- 6 -->
<g id="node7" class="node">
<title>6</title>
<path fill="none" stroke="#56d873" stroke-width="2" d="M484.5,-468C484.5,-468 381.5,-468 381.5,-468 375.5,-468 369.5,-462 369.5,-456 369.5,-456 369.5,-444 369.5,-444 369.5,-438 375.5,-432 381.5,-432 381.5,-432 484.5,-432 484.5,-432 490.5,-432 496.5,-438 496.5,-444 496.5,-444 496.5,-456 496.5,-456 496.5,-462 490.5,-468 484.5,-468"/>
<text text-anchor="middle" x="433" y="-447.5" font-family="sans" font-size="10.00">combine_atlite_supply</text>
</g>
<!-- 6&#45;&gt;5 -->
<g id="edge11" class="edge">
<title>6&#45;&gt;5</title>
<path fill="none" stroke="grey" stroke-width="2" d="M410.26,-431.7C398.56,-422.8 384.14,-411.82 371.49,-402.2"/>
<polygon fill="grey" stroke="grey" stroke-width="2" points="373.56,-399.37 363.48,-396.1 369.32,-404.94 373.56,-399.37"/>
</g>
<!-- 7 -->
<g id="node8" class="node">
<title>7</title>
<path fill="none" stroke="#d8b456" stroke-width="2" d="M915.5,-540C915.5,-540 780.5,-540 780.5,-540 774.5,-540 768.5,-534 768.5,-528 768.5,-528 768.5,-516 768.5,-516 768.5,-510 774.5,-504 780.5,-504 780.5,-504 915.5,-504 915.5,-504 921.5,-504 927.5,-510 927.5,-516 927.5,-516 927.5,-528 927.5,-528 927.5,-534 921.5,-540 915.5,-540"/>
<text text-anchor="middle" x="848" y="-519.5" font-family="sans" font-size="10.00">build_potentials_and_profiles</text>
</g>
<!-- 7&#45;&gt;6 -->
<g id="edge15" class="edge">
<title>7&#45;&gt;6</title>
<path fill="none" stroke="grey" stroke-width="2" d="M768.47,-507.59C692.95,-494.85 580.31,-475.85 506.75,-463.44"/>
<polygon fill="grey" stroke="grey" stroke-width="2" points="507.08,-459.95 496.64,-461.73 505.92,-466.85 507.08,-459.95"/>
</g>
<!-- 8 -->
<g id="node9" class="node">
<title>8</title>
<path fill="none" stroke="#97d856" stroke-width="2" d="M897,-612C897,-612 799,-612 799,-612 793,-612 787,-606 787,-600 787,-600 787,-588 787,-588 787,-582 793,-576 799,-576 799,-576 897,-576 897,-576 903,-576 909,-582 909,-588 909,-588 909,-600 909,-600 909,-606 903,-612 897,-612"/>
<text text-anchor="middle" x="848" y="-591.5" font-family="sans" font-size="10.00">download_land_cover</text>
</g>
<!-- 8&#45;&gt;7 -->
<g id="edge18" class="edge">
<title>8&#45;&gt;7</title>
<path fill="none" stroke="grey" stroke-width="2" d="M848,-575.7C848,-567.98 848,-558.71 848,-550.11"/>
<polygon fill="grey" stroke="grey" stroke-width="2" points="851.5,-550.1 848,-540.1 844.5,-550.1 851.5,-550.1"/>
</g>
<!-- 9 -->
<g id="node10" class="node">
<title>9</title>
<path fill="none" stroke="#5663d8" stroke-width="2" d="M704,-684C704,-684 630,-684 630,-684 624,-684 618,-678 618,-672 618,-672 618,-660 618,-660 618,-654 624,-648 630,-648 630,-648 704,-648 704,-648 710,-648 716,-654 716,-660 716,-660 716,-672 716,-672 716,-678 710,-684 704,-684"/>
<text text-anchor="middle" x="667" y="-663.5" font-family="sans" font-size="10.00">download_gebco</text>
</g>
<!-- 9&#45;&gt;7 -->
<g id="edge23" class="edge">
<title>9&#45;&gt;7</title>
<path fill="none" stroke="grey" stroke-width="2" d="M692.27,-647.87C706.61,-637.85 724.7,-624.71 740,-612 757.9,-597.13 760.25,-591.04 778,-576 790.09,-565.75 803.91,-555.08 816.06,-546.02"/>
<polygon fill="grey" stroke="grey" stroke-width="2" points="818.2,-548.79 824.16,-540.04 814.04,-543.16 818.2,-548.79"/>
</g>
<!-- 10 -->
<g id="node11" class="node">
<title>10</title>
<path fill="none" stroke="#56d8b1" stroke-width="2" d="M718.5,-612C718.5,-612 615.5,-612 615.5,-612 609.5,-612 603.5,-606 603.5,-600 603.5,-600 603.5,-588 603.5,-588 603.5,-582 609.5,-576 615.5,-576 615.5,-576 718.5,-576 718.5,-576 724.5,-576 730.5,-582 730.5,-588 730.5,-588 730.5,-600 730.5,-600 730.5,-606 724.5,-612 718.5,-612"/>
<text text-anchor="middle" x="667" y="-591.5" font-family="sans" font-size="10.00">calcualte_gebco_slope</text>
</g>
<!-- 9&#45;&gt;10 -->
<g id="edge24" class="edge">
<title>9&#45;&gt;10</title>
<path fill="none" stroke="grey" stroke-width="2" d="M667,-647.7C667,-639.98 667,-630.71 667,-622.11"/>
<polygon fill="grey" stroke="grey" stroke-width="2" points="670.5,-622.1 667,-612.1 663.5,-622.1 670.5,-622.1"/>
</g>
<!-- 25 -->
<g id="node26" class="node">
<title>25</title>
<path fill="none" stroke="#88d856" stroke-width="2" d="M92,-396C92,-396 12,-396 12,-396 6,-396 0,-390 0,-384 0,-384 0,-372 0,-372 0,-366 6,-360 12,-360 12,-360 92,-360 92,-360 98,-360 104,-366 104,-372 104,-372 104,-384 104,-384 104,-390 98,-396 92,-396"/>
<text text-anchor="middle" x="52" y="-375.5" font-family="sans" font-size="10.00">plot_import_route</text>
</g>
<!-- 9&#45;&gt;25 -->
<g id="edge35" class="edge">
<title>9&#45;&gt;25</title>
<path fill="none" stroke="grey" stroke-width="2" d="M617.98,-664.19C482.29,-661.47 109.24,-650.52 71,-612 16.39,-556.99 32.69,-454.38 44.49,-405.81"/>
<polygon fill="grey" stroke="grey" stroke-width="2" points="47.9,-406.58 46.98,-396.03 41.12,-404.85 47.9,-406.58"/>
</g>
<!-- 10&#45;&gt;7 -->
<g id="edge21" class="edge">
<title>10&#45;&gt;7</title>
<path fill="none" stroke="grey" stroke-width="2" d="M711.28,-575.88C736.35,-566.18 767.9,-553.98 794.37,-543.74"/>
<polygon fill="grey" stroke="grey" stroke-width="2" points="795.8,-546.94 803.87,-540.07 793.28,-540.41 795.8,-546.94"/>
</g>
<!-- 11 -->
<g id="node12" class="node">
<title>11</title>
<path fill="none" stroke="#9fd856" stroke-width="2" d="M1144.5,-612C1144.5,-612 1073.5,-612 1073.5,-612 1067.5,-612 1061.5,-606 1061.5,-600 1061.5,-600 1061.5,-588 1061.5,-588 1061.5,-582 1067.5,-576 1073.5,-576 1073.5,-576 1144.5,-576 1144.5,-576 1150.5,-576 1156.5,-582 1156.5,-588 1156.5,-588 1156.5,-600 1156.5,-600 1156.5,-606 1150.5,-612 1144.5,-612"/>
<text text-anchor="middle" x="1109" y="-591.5" font-family="sans" font-size="10.00">download_wdpa</text>
</g>
<!-- 11&#45;&gt;7 -->
<g id="edge17" class="edge">
<title>11&#45;&gt;7</title>
<path fill="none" stroke="grey" stroke-width="2" d="M1061.28,-579.88C1056.46,-578.56 1051.63,-577.25 1047,-576 1005.81,-564.87 959.78,-552.6 922.37,-542.67"/>
<polygon fill="grey" stroke="grey" stroke-width="2" points="923.12,-539.25 912.56,-540.07 921.33,-546.01 923.12,-539.25"/>
</g>
<!-- 12 -->
<g id="node13" class="node">
<title>12</title>
<path fill="none" stroke="#68d856" stroke-width="2" d="M1297.5,-612C1297.5,-612 1186.5,-612 1186.5,-612 1180.5,-612 1174.5,-606 1174.5,-600 1174.5,-600 1174.5,-588 1174.5,-588 1174.5,-582 1180.5,-576 1186.5,-576 1186.5,-576 1297.5,-576 1297.5,-576 1303.5,-576 1309.5,-582 1309.5,-588 1309.5,-588 1309.5,-600 1309.5,-600 1309.5,-606 1303.5,-612 1297.5,-612"/>
<text text-anchor="middle" x="1242" y="-591.5" font-family="sans" font-size="10.00">download_wdpa_marine</text>
</g>
<!-- 12&#45;&gt;7 -->
<g id="edge19" class="edge">
<title>12&#45;&gt;7</title>
<path fill="none" stroke="grey" stroke-width="2" d="M1174.5,-577.7C1171.63,-577.11 1168.79,-576.54 1166,-576 1089.22,-561.03 1001.48,-546.6 937.64,-536.59"/>
<polygon fill="grey" stroke="grey" stroke-width="2" points="938.03,-533.11 927.61,-535.03 936.95,-540.03 938.03,-533.11"/>
</g>
<!-- 13 -->
<g id="node14" class="node">
<title>13</title>
<path fill="none" stroke="#5673d8" stroke-width="2" d="M573,-612C573,-612 445,-612 445,-612 439,-612 433,-606 433,-600 433,-600 433,-588 433,-588 433,-582 439,-576 445,-576 445,-576 573,-576 573,-576 579,-576 585,-582 585,-588 585,-588 585,-600 585,-600 585,-606 579,-612 573,-612"/>
<text text-anchor="middle" x="509" y="-591.5" font-family="sans" font-size="10.00">download_shipping_density</text>
</g>
<!-- 13&#45;&gt;7 -->
<g id="edge22" class="edge">
<title>13&#45;&gt;7</title>
<path fill="none" stroke="grey" stroke-width="2" d="M585.08,-577.29C636.44,-566.68 704.45,-552.64 758.43,-541.49"/>
<polygon fill="grey" stroke="grey" stroke-width="2" points="759.26,-544.9 768.34,-539.45 757.84,-538.04 759.26,-544.9"/>
</g>
<!-- 14 -->
<g id="node15" class="node">
<title>14</title>
<path fill="none" stroke="#56c1d8" stroke-width="2" d="M992.5,-612C992.5,-612 939.5,-612 939.5,-612 933.5,-612 927.5,-606 927.5,-600 927.5,-600 927.5,-588 927.5,-588 927.5,-582 933.5,-576 939.5,-576 939.5,-576 992.5,-576 992.5,-576 998.5,-576 1004.5,-582 1004.5,-588 1004.5,-588 1004.5,-600 1004.5,-600 1004.5,-606 998.5,-612 992.5,-612"/>
<text text-anchor="middle" x="966" y="-591.5" font-family="sans" font-size="10.00">build_cutout</text>
</g>
<!-- 14&#45;&gt;7 -->
<g id="edge16" class="edge">
<title>14&#45;&gt;7</title>
<path fill="none" stroke="grey" stroke-width="2" d="M937.13,-575.88C921.71,-566.72 902.52,-555.34 885.9,-545.48"/>
<polygon fill="grey" stroke="grey" stroke-width="2" points="887.36,-542.28 876.98,-540.19 883.79,-548.3 887.36,-542.28"/>
</g>
<!-- 15 -->
<g id="node16" class="node">
<title>15</title>
<path fill="none" stroke="#59d856" stroke-width="2" d="M1042.5,-684C1042.5,-684 955.5,-684 955.5,-684 949.5,-684 943.5,-678 943.5,-672 943.5,-672 943.5,-660 943.5,-660 943.5,-654 949.5,-648 955.5,-648 955.5,-648 1042.5,-648 1042.5,-648 1048.5,-648 1054.5,-654 1054.5,-660 1054.5,-660 1054.5,-672 1054.5,-672 1054.5,-678 1048.5,-684 1042.5,-684"/>
<text text-anchor="middle" x="999" y="-663.5" font-family="sans" font-size="10.00">build_region_shape</text>
</g>
<!-- 15&#45;&gt;7 -->
<g id="edge20" class="edge">
<title>15&#45;&gt;7</title>
<path fill="none" stroke="grey" stroke-width="2" d="M1008.78,-647.87C1018.35,-628.57 1029.44,-597.13 1014,-576 996.04,-551.42 966.56,-537.97 937.38,-530.71"/>
<polygon fill="grey" stroke="grey" stroke-width="2" points="938.04,-527.27 927.51,-528.47 936.49,-534.09 938.04,-527.27"/>
</g>
<!-- 15&#45;&gt;14 -->
<g id="edge25" class="edge">
<title>15&#45;&gt;14</title>
<path fill="none" stroke="grey" stroke-width="2" d="M990.84,-647.7C987.09,-639.73 982.55,-630.1 978.38,-621.26"/>
<polygon fill="grey" stroke="grey" stroke-width="2" points="981.49,-619.66 974.06,-612.1 975.16,-622.64 981.49,-619.66"/>
</g>
<!-- 16 -->
<g id="node17" class="node">
<title>16</title>
<path fill="none" stroke="#d8c356" stroke-width="2" d="M980.5,-756C980.5,-756 907.5,-756 907.5,-756 901.5,-756 895.5,-750 895.5,-744 895.5,-744 895.5,-732 895.5,-732 895.5,-726 901.5,-720 907.5,-720 907.5,-720 980.5,-720 980.5,-720 986.5,-720 992.5,-726 992.5,-732 992.5,-732 992.5,-744 992.5,-744 992.5,-750 986.5,-756 980.5,-756"/>
<text text-anchor="middle" x="944" y="-735.5" font-family="sans" font-size="10.00">download_gadm</text>
</g>
<!-- 16&#45;&gt;15 -->
<g id="edge26" class="edge">
<title>16&#45;&gt;15</title>
<path fill="none" stroke="grey" stroke-width="2" d="M957.6,-719.7C964.12,-711.39 972.07,-701.28 979.25,-692.14"/>
<polygon fill="grey" stroke="grey" stroke-width="2" points="982.13,-694.13 985.56,-684.1 976.63,-689.81 982.13,-694.13"/>
</g>
<!-- 17 -->
<g id="node18" class="node">
<title>17</title>
<path fill="none" stroke="#56d0d8" stroke-width="2" d="M1085,-756C1085,-756 1023,-756 1023,-756 1017,-756 1011,-750 1011,-744 1011,-744 1011,-732 1011,-732 1011,-726 1017,-720 1023,-720 1023,-720 1085,-720 1085,-720 1091,-720 1097,-726 1097,-732 1097,-732 1097,-744 1097,-744 1097,-750 1091,-756 1085,-756"/>
<text text-anchor="middle" x="1054" y="-735.5" font-family="sans" font-size="10.00">download_eez</text>
</g>
<!-- 17&#45;&gt;15 -->
<g id="edge27" class="edge">
<title>17&#45;&gt;15</title>
<path fill="none" stroke="grey" stroke-width="2" d="M1040.4,-719.7C1033.88,-711.39 1025.93,-701.28 1018.75,-692.14"/>
<polygon fill="grey" stroke="grey" stroke-width="2" points="1021.37,-689.81 1012.44,-684.1 1015.87,-694.13 1021.37,-689.81"/>
</g>
<!-- 18 -->
<g id="node19" class="node">
<title>18</title>
<path fill="none" stroke="#d8a456" stroke-width="2" d="M218,-612C218,-612 92,-612 92,-612 86,-612 80,-606 80,-600 80,-600 80,-588 80,-588 80,-582 86,-576 92,-576 92,-576 218,-576 218,-576 224,-576 230,-582 230,-588 230,-588 230,-600 230,-600 230,-606 224,-612 218,-612"/>
<text text-anchor="middle" x="155" y="-591.5" font-family="sans" font-size="10.00">download_technology_data</text>
</g>
<!-- 18&#45;&gt;5 -->
<g id="edge14" class="edge">
<title>18&#45;&gt;5</title>
<path fill="none" stroke="grey" stroke-width="2" d="M152.59,-575.6C149.13,-543.24 146.63,-473.35 182,-432 208.25,-401.31 252.78,-388.32 288.04,-382.86"/>
<polygon fill="grey" stroke="grey" stroke-width="2" points="288.77,-386.29 298.19,-381.45 287.8,-379.36 288.77,-386.29"/>
</g>
<!-- 20 -->
<g id="node21" class="node">
<title>20</title>
<path fill="none" stroke="#56d863" stroke-width="2" d="M263,-540C263,-540 195,-540 195,-540 189,-540 183,-534 183,-528 183,-528 183,-516 183,-516 183,-510 189,-504 195,-504 195,-504 263,-504 263,-504 269,-504 275,-510 275,-516 275,-516 275,-528 275,-528 275,-534 269,-540 263,-540"/>
<text text-anchor="middle" x="229" y="-519.5" font-family="sans" font-size="10.00">create_network</text>
</g>
<!-- 18&#45;&gt;20 -->
<g id="edge31" class="edge">
<title>18&#45;&gt;20</title>
<path fill="none" stroke="grey" stroke-width="2" d="M173.29,-575.7C182.43,-567.05 193.64,-556.45 203.6,-547.03"/>
<polygon fill="grey" stroke="grey" stroke-width="2" points="206.06,-549.52 210.92,-540.1 201.25,-544.43 206.06,-549.52"/>
</g>
<!-- 19 -->
<g id="node20" class="node">
<title>19</title>
<path fill="none" stroke="#56a2d8" stroke-width="2" d="M300.5,-468C300.5,-468 203.5,-468 203.5,-468 197.5,-468 191.5,-462 191.5,-456 191.5,-456 191.5,-444 191.5,-444 191.5,-438 197.5,-432 203.5,-432 203.5,-432 300.5,-432 300.5,-432 306.5,-432 312.5,-438 312.5,-444 312.5,-444 312.5,-456 312.5,-456 312.5,-462 306.5,-468 300.5,-468"/>
<text text-anchor="middle" x="252" y="-447.5" font-family="sans" font-size="10.00">attach_import_profile</text>
</g>
<!-- 19&#45;&gt;5 -->
<g id="edge13" class="edge">
<title>19&#45;&gt;5</title>
<path fill="none" stroke="grey" stroke-width="2" d="M274,-431.7C285.21,-422.88 299,-412.03 311.15,-402.47"/>
<polygon fill="grey" stroke="grey" stroke-width="2" points="313.56,-405.04 319.25,-396.1 309.23,-399.54 313.56,-405.04"/>
</g>
<!-- 20&#45;&gt;19 -->
<g id="edge29" class="edge">
<title>20&#45;&gt;19</title>
<path fill="none" stroke="grey" stroke-width="2" d="M234.69,-503.7C237.25,-495.9 240.33,-486.51 243.18,-477.83"/>
<polygon fill="grey" stroke="grey" stroke-width="2" points="246.58,-478.7 246.38,-468.1 239.93,-476.51 246.58,-478.7"/>
</g>
<!-- 21 -->
<g id="node22" class="node">
<title>21</title>
<path fill="none" stroke="#d86656" stroke-width="2" d="M402.5,-612C402.5,-612 259.5,-612 259.5,-612 253.5,-612 247.5,-606 247.5,-600 247.5,-600 247.5,-588 247.5,-588 247.5,-582 253.5,-576 259.5,-576 259.5,-576 402.5,-576 402.5,-576 408.5,-576 414.5,-582 414.5,-588 414.5,-588 414.5,-600 414.5,-600 414.5,-606 408.5,-612 402.5,-612"/>
<text text-anchor="middle" x="331" y="-591.5" font-family="sans" font-size="10.00">create_additional_components</text>
</g>
<!-- 21&#45;&gt;4 -->
<g id="edge10" class="edge">
<title>21&#45;&gt;4</title>
<path fill="none" stroke="grey" stroke-width="2" d="M374.84,-575.86C417.14,-556.67 478.66,-521.12 506,-468 533.42,-414.71 469.99,-359.73 426.22,-329.81"/>
<polygon fill="grey" stroke="grey" stroke-width="2" points="428.02,-326.8 417.76,-324.17 424.13,-332.63 428.02,-326.8"/>
</g>
<!-- 21&#45;&gt;5 -->
<g id="edge12" class="edge">
<title>21&#45;&gt;5</title>
<path fill="none" stroke="grey" stroke-width="2" d="M331.8,-575.85C333.53,-538.83 337.63,-451.18 339.72,-406.39"/>
<polygon fill="grey" stroke="grey" stroke-width="2" points="343.22,-406.38 340.19,-396.23 336.23,-406.06 343.22,-406.38"/>
</g>
<!-- 21&#45;&gt;19 -->
<g id="edge28" class="edge">
<title>21&#45;&gt;19</title>
<path fill="none" stroke="grey" stroke-width="2" d="M322.28,-575.78C313.05,-557.74 297.93,-528.64 284,-504 278.9,-494.97 273.09,-485.22 267.85,-476.57"/>
<polygon fill="grey" stroke="grey" stroke-width="2" points="270.83,-474.75 262.63,-468.04 264.86,-478.4 270.83,-474.75"/>
</g>
<!-- 21&#45;&gt;20 -->
<g id="edge30" class="edge">
<title>21&#45;&gt;20</title>
<path fill="none" stroke="grey" stroke-width="2" d="M306.05,-575.88C292.96,-566.89 276.74,-555.76 262.56,-546.03"/>
<polygon fill="grey" stroke="grey" stroke-width="2" points="264.27,-542.96 254.05,-540.19 260.31,-548.73 264.27,-542.96"/>
</g>
<!-- 22&#45;&gt;0 -->
<g id="edge1" class="edge">
<title>22&#45;&gt;0</title>
<path fill="none" stroke="grey" stroke-width="2" d="M548.67,-71.97C495.48,-60.55 426,-45.62 374.33,-34.53"/>
<polygon fill="grey" stroke="grey" stroke-width="2" points="374.76,-31.04 364.25,-32.37 373.29,-37.89 374.76,-31.04"/>
</g>
<!-- 23&#45;&gt;0 -->
<g id="edge4" class="edge">
<title>23&#45;&gt;0</title>
<path fill="none" stroke="grey" stroke-width="2" d="M193.23,-71.88C212.58,-62.47 236.77,-50.71 257.43,-40.67"/>
<polygon fill="grey" stroke="grey" stroke-width="2" points="259.17,-43.71 266.64,-36.19 256.11,-37.41 259.17,-43.71"/>
</g>
<!-- 24&#45;&gt;0 -->
<g id="edge5" class="edge">
<title>24&#45;&gt;0</title>
<path fill="none" stroke="grey" stroke-width="2" d="M302,-71.7C302,-63.98 302,-54.71 302,-46.11"/>
<polygon fill="grey" stroke="grey" stroke-width="2" points="305.5,-46.1 302,-36.1 298.5,-46.1 305.5,-46.1"/>
</g>
<!-- 25&#45;&gt;0 -->
<g id="edge3" class="edge">
<title>25&#45;&gt;0</title>
<path fill="none" stroke="grey" stroke-width="2" d="M52,-359.95C52,-333.29 52,-280.11 52,-235 52,-235 52,-235 52,-161 52,-120.55 42.62,-100.82 71,-72 92.97,-49.69 170.46,-35.18 229.7,-27.07"/>
<polygon fill="grey" stroke="grey" stroke-width="2" points="230.33,-30.52 239.78,-25.73 229.4,-23.58 230.33,-30.52"/>
</g>
</g>
</svg>
